<?xml version="1.0" encoding="UTF-8"?>
<svg width="800" height="600" viewBox="0 0 800 600" xmlns="http://www.w3.org/2000/svg">
  <defs>
    <linearGradient id="gold" x1="0" y1="0" x2="1" y2="1">
      <stop offset="0%" stop-color="#FFD700"/>
      <stop offset="50%" stop-color="#D4AF37"/>
      <stop offset="100%" stop-color="#B8860B"/>
    </linearGradient>
    <pattern id="grid" width="40" height="40" patternUnits="userSpaceOnUse">
      <path d="M 40 0 L 0 0 0 40" fill="none" stroke="url(#gold)" stroke-width="0.5" opacity="0.3"/>
    </pattern>
  </defs>
  
  <!-- Background -->
  <rect width="800" height="600" fill="#FFFFFF"/>
  <rect width="800" height="600" fill="url(#grid)"/>
  
  <!-- Decorative Elements -->
  <circle cx="400" cy="300" r="200" fill="none" stroke="url(#gold)" stroke-width="1" opacity="0.2"/>
  <circle cx="400" cy="300" r="150" fill="none" stroke="url(#gold)" stroke-width="1" opacity="0.3"/>
  <circle cx="400" cy="300" r="100" fill="none" stroke="url(#gold)" stroke-width="1" opacity="0.4"/>
  
  <!-- Center Diamond -->
  <path d="M400 150 L500 300 L400 450 L300 300 Z" fill="none" stroke="url(#gold)" stroke-width="2"/>
  
  <!-- Decorative Lines -->
  <line x1="0" y1="0" x2="800" y2="600" stroke="url(#gold)" stroke-width="1" opacity="0.1"/>
  <line x1="800" y1="0" x2="0" y2="600" stroke="url(#gold)" stroke-width="1" opacity="0.1"/>
  
  <!-- Corner Ornaments -->
  <path d="M50 50 L100 50 L100 100" fill="none" stroke="url(#gold)" stroke-width="2"/>
  <path d="M700 50 L750 50 L750 100" fill="none" stroke="url(#gold)" stroke-width="2"/>
  <path d="M50 500 L50 550 L100 550" fill="none" stroke="url(#gold)" stroke-width="2"/>
  <path d="M700 500 L750 500 L750 550" fill="none" stroke="url(#gold)" stroke-width="2"/>
</svg> 